<svg width="292" height="313" viewBox="0 0 292 313" fill="none" xmlns="http://www.w3.org/2000/svg">
<path d="M70.5515 202.373C68.8122 199.623 67.3423 196.636 66.1823 193.497L70.8313 191.989C71.8546 194.759 73.1479 197.389 74.6758 199.804L70.5515 202.373ZM80.3959 213.448L83.3393 209.538C85.5537 211.363 87.9793 212.996 90.5491 214.39L88.4807 218.89C85.6032 217.329 82.883 215.499 80.3959 213.448ZM63.1495 179.25C62.9289 176.06 63.0011 172.849 63.3641 169.704L68.3194 170.674C67.9928 173.503 67.9283 176.392 68.1262 179.261L63.1495 179.25ZM101.847 223.96L102.615 218.962C105.368 219.609 108.203 220.03 111.041 220.21L111.097 225.33C107.984 225.132 104.872 224.671 101.847 223.96ZM66.9807 156.115C68.2606 153.202 69.8334 150.505 71.6573 148.098L75.677 151.432C74.0728 153.549 72.6852 155.929 71.5538 158.504L66.9807 156.115ZM124.851 224.494L123.604 219.447C126.351 218.927 129.035 218.171 131.581 217.201L133.61 222.028C130.812 223.094 127.865 223.924 124.851 224.494ZM29.5887 85.6077L28.2174 80.5849C31.1119 79.9544 34.0434 79.3993 36.9294 78.9342L38.0506 84.004C35.2474 84.4551 32.4006 84.9952 29.5887 85.6077ZM84.6586 143.545L82.0428 138.991C82.9902 138.464 83.9779 137.979 84.9776 137.55C86.7265 136.8 88.5269 136.089 90.3279 135.437L92.2858 140.29C90.5662 140.913 88.8483 141.592 87.1795 142.307C86.3202 142.676 85.4724 143.092 84.6586 143.545ZM50.92 82.494L50.2072 77.3767C53.2044 77.1584 56.2192 77.0323 59.1677 77.0021L59.5831 82.1322C56.7333 82.161 53.8183 82.2836 50.92 82.494ZM142.302 211.245C142.71 210.93 143.112 210.608 143.508 210.276C145.199 208.863 146.811 207.299 148.3 205.627L152.091 209.239C150.455 211.076 148.682 212.796 146.821 214.351C146.38 214.72 145.933 215.079 145.478 215.429L142.302 211.245ZM104.526 136.733L103.134 131.715C106.017 131.073 108.976 130.542 111.93 130.137L112.941 135.224C110.115 135.611 107.283 136.119 104.526 136.733ZM72.6298 82.6445L72.7041 77.5342C75.7405 77.8094 78.78 78.1945 81.739 78.6798L81.3092 83.7451C78.4684 83.2791 75.5481 82.9089 72.6298 82.6445ZM155.326 195.33C156.594 192.872 157.702 190.251 158.618 187.541L163.344 189.536C162.351 192.474 161.149 195.318 159.772 197.987L155.326 195.33ZM125.812 134.248L125.37 129.118C128.363 129.071 131.407 129.142 134.416 129.331L134.478 134.451C131.594 134.271 128.679 134.202 125.812 134.248ZM94.179 86.6245L95.1855 81.6892C98.1623 82.5416 101.124 83.5222 103.99 84.6044L102.579 89.4055C99.8463 88.3735 97.02 87.4379 94.179 86.6245ZM161.456 174.976C161.806 172.119 161.975 169.19 161.959 166.27L166.948 166.616C166.965 169.757 166.783 172.907 166.406 175.981L161.456 174.976ZM114.716 94.9454L116.774 90.4399C119.531 91.9282 122.258 93.5609 124.879 95.2917L122.407 99.5496C119.92 97.9074 117.332 96.3583 114.716 94.9454ZM147.475 136.033L147.987 130.982C149.61 131.276 151.24 131.607 152.861 131.971C151.519 129.528 150.023 127.105 148.411 124.767L148.238 124.517L152.23 121.748L152.411 122.01C154.185 124.583 155.829 127.253 157.296 129.947L153.252 132.059C154.494 132.343 155.731 132.646 156.957 132.968L156.062 137.934C153.235 137.192 150.346 136.553 147.475 136.033ZM160.645 153.116C160.074 150.2 159.313 147.308 158.383 144.519L163.092 143.18C164.096 146.193 164.917 149.315 165.534 152.462L160.645 153.116ZM133.156 107.738L136.225 103.935C138.633 106.042 140.954 108.273 143.125 110.568L139.675 114.005C137.625 111.838 135.432 109.73 133.156 107.738ZM168.69 142.049L170.162 137.27C173.051 138.403 175.928 139.664 178.713 141.018L176.857 145.627C174.198 144.335 171.45 143.131 168.69 142.049ZM188.591 152.222L191.002 147.924C193.628 149.609 196.237 151.425 198.758 153.324L196.006 157.385C193.596 155.569 191.102 153.832 188.591 152.222ZM237.176 210.956C236.048 208.166 234.794 205.371 233.45 202.649L237.866 200.6C239.271 203.446 240.583 206.37 241.763 209.288L237.176 210.956ZM206.414 166.164L209.633 162.497C211.927 164.657 214.179 166.933 216.324 169.263L212.822 172.643C210.767 170.413 208.611 168.233 206.414 166.164ZM226.731 190.725C225.105 188.171 223.354 185.628 221.552 183.197L225.437 180.28C227.32 182.819 229.147 185.474 230.845 188.14L226.731 190.725Z" fill="white"/>
<path d="M193.964 207.947L196.675 201.922L248.428 229.497L260.798 175.2L267.281 177.215L253.101 239.457L193.964 207.947Z" fill="white"/>
</svg>
