<!-- Save this as /public/github.svg -->
<svg xmlns="http://www.w3.org/2000/svg" width="24" height="24" fill="white" viewBox="0 0 24 24"><path d="M12 0C5.37 0 .001 5.37.001 12c0 5.3 3.438 9.8 8.205 11.385.6.113.82-.258.82-.577 0-.285-.01-1.04-.016-2.04-3.338.726-4.042-1.61-4.042-1.61-.546-1.387-1.333-1.756-1.333-1.756-1.09-.744.082-.729.082-.729 1.204.084 1.837 1.236 1.837 1.236 1.07 1.834 2.807 1.304 3.492.997.107-.776.42-1.305.762-1.605-2.665-.303-5.467-1.332-5.467-5.93 0-1.31.467-2.38 1.235-3.22-.124-.303-.535-1.523.117-3.176 0 0 1.008-.322 3.3 1.23a11.49 11.49 0 0 1 3-.404c1.02.005 2.045.137 3 .404 2.29-1.552 3.295-1.23 3.295-1.23.654 1.653.243 2.873.12 3.176.77.84 1.232 1.91 1.232 3.22 0 4.61-2.807 5.624-5.48 5.922.432.372.816 1.102.816 2.222 0 1.604-.015 2.898-.015 3.293 0 .322.216.694.825.576C20.565 21.796 24 17.297 24 12 24 5.37 18.63 0 12 0z"></path></svg>
