<svg xmlns="http://www.w3.org/2000/svg" width="20" height="20" viewBox="0 0 256 262">
  <path fill="#4285F4" d="M255.86 133.42c0-10.12-.92-19.82-2.63-29.26H130v55.36h70.58c-3.06 16.5-12.48 30.48-26.6 39.84v33.12h43.14c25.22-23.24 39.74-57.5 39.74-98.06z"></path>
  <path fill="#34A853" d="M130 261c35.1 0 64.56-11.66 86.08-31.64l-43.14-33.12c-11.96 8.08-27.26 12.84-42.94 12.84-32.94 0-60.84-22.22-70.8-52.2H15.14v32.72C36.5 231.18 80.6 261 130 261z"></path>
  <path fill="#FBBC04" d="M59.2 156.88c-2.6-7.72-4.1-15.94-4.1-24.38s1.5-16.66 4.1-24.38V75.4H15.14C5.22 95.68 0 117.9 0 132.5s5.22 36.82 15.14 57.1l44.06-32.72z"></path>
  <path fill="#EA4335" d="M130 51.98c18.98 0 35.94 6.54 49.38 19.4l37.04-36.12C194.56 13.18 165.1 0 130 0 80.6 0 36.5 29.82 15.14 75.4l44.06 32.72c9.96-29.98 37.86-52.14 70.8-52.14z"></path>
</svg>
