<svg width="1440" height="1229" viewBox="0 0 1440 1229" fill="none" xmlns="http://www.w3.org/2000/svg">
<g opacity="1">
<mask id="mask0_39_48" style="mask-type:luminance" maskUnits="userSpaceOnUse" x="-102" y="0" width="955" height="643">
<path d="M109.848 0C113.29 34.3611 137.155 74.4743 189.586 121.399C348.166 263.323 392.733 347.944 335.669 394.763C280.561 439.98 130.965 449.932 -102 442.153V441.476C130.259 449.239 279.334 439.381 334.053 394.481C390.893 347.846 346.318 263.395 187.948 121.66C135.41 74.6393 111.483 34.4403 108.014 0H109.848ZM127.867 0C126.856 36.7158 149.916 80.3744 208.043 132.394C366.623 274.318 411.189 358.939 354.123 405.759C297.577 452.158 141.532 461.424 -102 452.502V451.823C140.825 460.727 296.352 451.554 352.509 405.476C409.348 358.841 364.773 274.39 206.404 132.655C148.176 80.5429 125.044 36.7964 126.025 0H127.867ZM147.368 0C140.966 38.9081 162.459 86.0763 226.497 143.389C385.077 285.314 429.644 369.934 372.58 416.754C315.427 463.649 156.657 472.615 -91.3598 463.207L-102 462.807V462.129L-91.1863 462.536C156.029 471.914 314.22 463.032 370.966 416.472C427.804 369.836 383.23 285.385 224.861 143.65C160.72 86.246 139.154 38.9902 145.516 0H147.368ZM168.458 0C155.696 40.9253 174.751 91.5565 244.954 154.384C403.534 296.309 448.101 380.929 391.034 427.749C333.883 474.643 175.114 483.611 -72.9034 474.203C-82.8178 473.826 -92.5043 473.466 -102 473.12V472.442C-92.4499 472.791 -82.7029 473.154 -72.732 473.532C174.485 482.909 332.676 474.028 389.42 427.467C446.259 380.832 401.686 296.381 243.316 154.646C173.016 91.7308 153.879 41.0112 166.588 0H168.458ZM191.193 0C171.07 42.7506 186.784 96.8029 263.409 165.38C421.989 307.304 466.555 391.924 409.491 438.744C352.338 485.639 193.569 494.606 -54.4487 485.197C-70.882 484.574 -86.7068 483.993 -102 483.455V482.778C-86.6464 483.317 -70.7693 483.901 -54.2755 484.527C192.94 493.904 351.133 485.023 407.877 438.462C464.715 391.827 420.141 307.376 261.772 165.64C185.054 96.9813 169.24 42.8393 189.294 0H191.193ZM215.741 0C187.215 44.3676 198.518 101.782 281.865 176.375C440.445 318.299 485.011 402.92 427.947 449.74C370.794 496.634 212.025 505.601 -35.9926 496.193C-59.1301 495.315 -81.107 494.516 -102 493.816V493.139C-81.0509 493.84 -59.0153 494.642 -35.8194 495.522C211.394 504.899 369.587 496.018 426.331 449.457C483.169 402.822 438.597 318.371 280.226 176.636C196.795 101.968 185.369 44.4609 213.808 0H215.741ZM242.272 0C204.259 45.7573 209.915 106.46 300.322 187.37C458.899 329.294 503.468 413.915 446.402 460.735C389.251 507.629 230.479 516.597 -17.5379 507.188C-47.6036 506.048 -75.7002 505.039 -102 504.212V503.536C-75.6419 504.365 -47.4866 505.375 -17.3644 506.517C229.851 515.895 388.042 507.013 444.788 460.452C501.626 413.817 457.052 329.367 298.681 187.631C208.202 106.654 202.393 45.857 240.297 0H242.272ZM270.987 0C222.36 46.8981 220.93 110.797 318.776 198.366C477.356 340.29 521.922 424.91 464.856 471.73C407.705 518.625 248.936 527.592 0.918608 518.183C-36.2906 516.772 -70.5173 515.56 -102 514.649V513.972C-70.4568 514.886 -36.1715 516.099 1.09213 517.512C248.307 526.89 406.498 518.008 463.242 471.448C520.081 424.812 475.506 340.361 317.138 198.626C219.227 110.999 220.466 47.0043 268.962 0H270.987ZM302.083 0C241.688 47.7595 231.507 114.742 337.231 209.361C495.813 351.285 540.379 435.905 483.313 482.725C426.162 529.619 267.392 538.587 19.3733 529.179C-25.2394 527.486 -65.5622 526.083 -102 525.139V524.462C-65.4956 525.407 -25.1166 526.813 19.5464 528.508C266.762 537.885 424.953 529.004 481.699 482.443C538.537 435.808 493.963 351.357 335.594 209.622C229.818 114.956 239.769 47.875 299.999 0H302.083ZM335.786 0C262.459 48.3099 241.589 118.244 355.687 220.356C514.267 362.28 558.833 446.9 501.769 493.72C444.616 540.615 285.847 549.582 37.8294 540.173C-14.4469 538.191 -60.8693 536.599 -102 535.687V535.009C-60.7987 535.924 -14.3159 537.518 38.0026 539.503C285.218 548.88 443.409 539.999 500.155 493.438C556.991 446.803 512.419 362.352 354.048 220.617C239.916 118.472 260.503 48.436 333.635 0H335.786ZM372.465 0C285.025 48.5097 251.076 121.213 374.141 231.351C532.724 373.275 577.288 457.896 520.224 504.716C463.071 551.61 304.301 560.578 56.2841 551.169C-3.97415 548.884 -56.4337 547.12 -102 546.316V545.639C-56.3552 546.446 -3.837 548.211 56.4576 550.498C303.673 559.875 461.866 550.994 518.61 504.433C575.448 457.798 530.874 373.347 372.505 231.612C249.429 121.465 282.996 48.6482 370.196 0H372.465ZM412.429 0C309.752 48.3061 259.872 123.561 392.598 242.346C551.178 384.27 595.744 468.891 538.68 515.711C481.527 562.605 322.758 571.573 74.7406 562.164C6.16813 559.563 -52.3027 557.639 -102 557.036V556.357C-52.216 556.964 6.31933 558.891 74.9141 561.493C322.129 570.871 480.32 561.989 537.064 515.429C593.903 468.793 549.33 384.342 390.96 242.607C258.246 123.832 307.657 48.4621 410.073 0H412.429ZM456.266 0C337.279 47.636 267.793 125.131 411.054 253.342C569.632 395.266 614.201 479.886 557.134 526.706C499.984 573.6 341.214 582.567 93.197 573.159C15.9454 570.229 -48.5 568.156 -102 567.867V567.186C-48.4036 567.482 16.1106 569.558 93.3684 572.488C340.584 581.866 498.777 572.985 555.521 526.424C612.359 479.788 567.785 395.337 409.416 253.602C266.207 125.437 335.064 47.8123 453.753 0H456.266ZM504.514 0C368.382 46.413 274.649 125.743 429.509 264.337C588.089 406.261 632.655 490.881 575.591 537.701C518.438 584.596 359.669 593.563 111.651 584.155C25.2992 580.88 -45.0646 578.673 -102 578.837V578.151C-44.9479 577.999 25.4846 580.209 111.825 583.484C359.04 592.861 517.231 583.98 573.975 537.419C630.813 490.784 586.24 406.333 427.87 264.597C273.125 126.106 365.976 46.6157 501.769 0H504.514ZM557.993 0C404.306 44.5212 280.116 125.115 447.966 275.332C606.546 417.256 651.112 501.876 594.046 548.696C536.895 595.591 378.125 604.558 130.106 595.15C34.1761 591.511 -42.0276 589.192 -102 589.977V589.286C-41.8926 588.519 34.3817 590.842 130.28 594.479C377.495 603.856 535.686 594.975 592.432 548.414C649.27 501.779 604.696 417.328 446.327 275.593C278.657 125.535 401.676 44.7574 555.033 0H557.993ZM617.735 0C447.008 41.7973 283.727 122.823 466.42 286.327C625 428.251 669.566 512.872 612.502 559.692C555.349 606.586 396.58 615.553 148.563 606.145C42.5047 602.122 -39.4442 599.711 -102 601.326V600.632C-39.2869 599.039 42.7366 601.454 148.736 605.474C395.951 614.851 554.142 605.97 610.888 559.409C667.727 512.774 623.152 428.324 464.782 286.588C282.371 123.336 444.002 42.078 614.459 0H617.735ZM685.294 0C500.022 37.9885 284.63 118.112 484.875 297.322C643.457 439.247 688.023 523.867 630.957 570.687C573.806 617.581 415.036 626.548 167.017 617.14C50.1943 612.709 -37.3868 610.233 -102 612.941V612.237C-37.1975 609.562 50.4586 612.042 167.19 616.469C414.406 625.847 572.599 616.965 629.343 570.405C686.181 523.769 641.608 439.318 483.238 297.583C283.449 118.781 496.361 38.3344 681.568 0H685.294ZM762.665 0C570.354 32.6929 281.262 109.577 503.331 308.318C661.911 450.242 706.477 534.862 649.413 581.682C592.26 628.576 433.491 637.544 185.473 628.135C57.1344 623.267 -35.9303 620.756 -102 624.889V624.166C-35.7046 620.081 57.4566 622.602 185.646 627.465C432.862 636.842 591.053 627.961 647.799 581.4C704.635 534.765 660.063 450.314 501.692 308.579C280.38 110.511 565.475 33.1336 758.361 0H762.665ZM-102 636.542C-34.91 630.619 63.5183 633.127 204.103 638.46C451.316 647.837 609.509 638.956 666.253 592.395C723.092 545.76 678.517 461.309 520.149 319.573C289.754 113.379 608.202 37.9724 800.072 7.12561C816.856 4.42658 832.658 2.07155 847.034 0H852.062C836.527 2.22135 819.222 4.7789 800.759 7.74666C609.482 38.4987 292.021 113.682 521.787 319.313C680.367 461.237 724.934 545.857 667.868 592.677C610.717 639.572 451.947 648.539 203.93 639.131C63.1475 633.79 -35.1862 631.287 -102 637.278V636.542Z" fill="white"/>
</mask>
<g mask="url(#mask0_39_48)">
  <filter id="glow" x="-120" y="-20" width="1000" height="700" filterUnits="userSpaceOnUse">
    <feGaussianBlur stdDeviation="12" result="blur"/>
    <feMerge>
      <feMergeNode in="blur"/>
      <feMergeNode in="SourceGraphic"/>
    </feMerge>
  </filter>
  <path d="M852.062 0H-102V648.539H852.062V0Z" fill="url(#paint0_linear_39_48)" filter="url(#glow)" opacity="0.7"/>
  <path d="M852.062 0H-102V648.539H852.062V0Z" fill="url(#paint0_linear_39_48)"/>
</g>
<mask id="mask1_39_48" style="mask-type:luminance" maskUnits="userSpaceOnUse" x="731" y="854" width="711" height="376">
<path d="M1441.36 1106.75V1105.9C1338.5 1075.97 1288.35 1045.85 1303.41 1011.29C1314.23 986.438 1358.7 959.265 1441.36 928.188V927.256C1357.61 958.642 1312.59 986.078 1301.65 1011.18C1286.42 1046.15 1337.23 1076.55 1441.36 1106.75ZM1441.36 1120.63V1119.81C1317.33 1086.95 1255.33 1054.38 1271.85 1016.45C1283.98 988.604 1338.34 957.844 1441.36 921.939V921.039C1337.24 957.239 1282.33 988.252 1270.1 1016.34C1253.4 1054.68 1316.06 1087.52 1441.36 1120.63ZM1441.36 1133.82V1133.02C1296.39 1097.39 1222.42 1062.63 1240.3 1021.61C1253.61 991.049 1317.79 956.976 1441.36 916.444V915.562C1316.69 956.383 1251.96 990.699 1238.54 1021.5C1220.5 1062.93 1295.12 1097.95 1441.36 1133.82ZM1441.36 1146.48V1145.69C1275.67 1107.39 1189.62 1070.67 1208.74 1026.77C1223.14 993.707 1297.08 956.532 1441.36 911.515V910.649C1295.97 955.949 1221.49 993.36 1206.99 1026.66C1187.68 1070.97 1274.41 1107.95 1441.36 1146.48ZM1441.36 1158.74V1157.96C1255.11 1117.06 1156.88 1078.54 1177.19 1031.93C1192.6 996.537 1276.25 956.434 1441.36 907.04V906.188C1275.13 955.856 1190.95 996.191 1175.43 1031.82C1154.95 1078.85 1253.86 1117.61 1441.36 1158.74ZM1441.36 1170.67V1169.9C1234.74 1126.43 1124.21 1086.27 1145.63 1037.09C1162 999.511 1255.29 956.618 1441.36 902.934V902.094C1254.18 956.046 1160.35 999.165 1143.88 1036.98C1122.27 1086.58 1233.48 1126.99 1441.36 1170.67ZM1441.36 1182.37V1181.61L1428.1 1178.87C1209.72 1133.93 1092.03 1092.86 1114.08 1042.25C1131.34 1002.6 1234.21 957.042 1441.36 899.131V898.301C1233.11 956.472 1129.69 1002.26 1112.32 1042.14C1090.12 1093.11 1208.16 1134.37 1427.25 1179.46L1441.36 1182.37ZM1441.36 1194.1V1193.33C1427.04 1190.33 1412.1 1187.23 1396.54 1184.03C1178.17 1139.09 1060.48 1098.02 1082.52 1047.41C1100.65 1005.8 1213.07 957.677 1441.36 895.599V894.772C1211.96 957.107 1098.99 1005.45 1080.77 1047.3C1058.56 1098.27 1176.61 1139.53 1395.69 1184.62C1411.56 1187.89 1426.78 1191.04 1441.36 1194.1ZM1441.36 1205.96V1205.19C1417.79 1200.13 1392.34 1194.82 1364.99 1189.19C1146.61 1144.25 1028.92 1103.18 1050.97 1052.57C1069.91 1009.09 1191.82 958.489 1441.36 892.282V891.459C1190.7 957.92 1068.25 1008.73 1049.21 1052.46C1027.01 1103.43 1145.05 1144.69 1364.14 1189.78C1391.83 1195.48 1417.57 1200.85 1441.36 1205.96ZM1441.36 1218.01V1217.22C1409.43 1210.14 1373.46 1202.59 1333.43 1194.35C1115.06 1149.41 997.364 1108.34 1019.41 1057.73C1039.13 1012.45 1170.51 959.461 1441.36 889.165V888.35C1169.4 958.893 1037.48 1012.1 1017.66 1057.62C995.454 1108.59 1113.5 1149.86 1332.58 1194.94C1372.98 1203.26 1409.24 1210.87 1441.36 1218.01ZM1437.27 1229.4H1439.92L1440.14 1229.27C1401.19 1220.21 1355.14 1210.47 1301.88 1199.51C1083.5 1154.57 965.811 1113.5 987.853 1062.89C1008.33 1015.89 1149.13 960.573 1441.36 886.22V885.409C1148.01 960.006 1006.68 1015.53 986.1 1062.78C963.899 1113.75 1081.94 1155.02 1301.03 1200.1C1353.4 1210.88 1398.79 1220.47 1437.27 1229.4ZM1383.04 1229.4H1386.54C1352.58 1221.77 1313.86 1213.63 1270.32 1204.67C1051.94 1159.73 934.255 1118.66 956.301 1068.05C977.496 1019.39 1127.68 961.813 1441.36 883.424V882.618C1126.56 961.246 975.845 1019.03 954.546 1067.94C932.343 1118.92 1050.38 1160.18 1269.47 1205.26C1311.9 1214 1349.74 1221.95 1383.04 1229.4ZM1328.08 1229.4H1331.65C1303.58 1223.28 1272.63 1216.8 1238.77 1209.83C1020.39 1164.89 902.698 1123.82 924.743 1073.21C946.639 1022.94 1106.16 963.169 1441.36 880.765V879.962C1105.04 962.601 944.993 1022.58 922.992 1073.1C900.785 1124.07 1018.83 1165.34 1237.92 1210.42C1270.7 1217.17 1300.75 1223.45 1328.08 1229.4ZM1272.52 1229.4H1276.15C1254.69 1224.82 1231.71 1220.04 1207.21 1214.99C988.837 1170.05 871.145 1128.98 893.187 1078.37C915.268 1027.68 1077.25 967.332 1418.23 883.855C1426.12 881.923 1433.8 879.988 1441.36 878.052V877.239C1433.49 879.258 1425.49 881.275 1417.27 883.289C1075.83 966.878 913.598 1027.37 891.436 1078.26C869.233 1129.24 987.273 1170.5 1206.36 1215.59C1229.81 1220.41 1251.86 1225 1272.52 1229.4ZM1216.52 1229.4H1220.19C1205.95 1226.41 1191.1 1223.33 1175.66 1220.15C957.277 1175.21 839.588 1134.14 861.634 1083.54C883.709 1032.84 1045.69 972.492 1386.68 889.016C1405.88 884.314 1424.06 879.598 1441.36 874.874V874.042C1423.77 878.855 1405.28 883.659 1385.71 888.45C1044.27 972.039 882.042 1032.53 859.878 1083.42C837.678 1134.4 955.72 1175.66 1174.8 1220.75C1189.24 1223.72 1203.14 1226.6 1216.52 1229.4ZM1160.16 1229.4H1163.87C1157.39 1228.05 1150.8 1226.7 1144.1 1225.32C925.723 1180.37 808.034 1139.3 830.077 1088.7C852.155 1038 1014.14 977.652 1355.12 894.175C1386.4 886.52 1415.07 878.829 1441.36 871.121V870.263C1414.81 878.068 1385.82 885.857 1354.15 893.61C1012.72 977.199 850.488 1037.69 828.324 1088.58C806.121 1139.56 924.165 1180.82 1143.25 1225.91C1148.97 1227.08 1154.61 1228.25 1160.16 1229.4ZM1103.63 1229.4H1107.34C892.312 1184.88 776.65 1144.06 798.522 1093.86C820.6 1043.17 982.587 982.813 1323.57 899.336C1367.86 888.493 1406.91 877.578 1441.36 866.647V865.764C1406.69 876.802 1367.32 887.823 1322.6 898.772C981.163 982.36 818.934 1042.85 796.769 1093.75C774.843 1144.09 889.723 1184.96 1103.63 1229.4ZM1047.61 1229.4H1051.21C851.982 1186.86 745.948 1147.28 766.969 1099.02C789.047 1048.32 951.031 987.973 1292.01 904.496C1350.42 890.198 1399.79 875.777 1441.36 861.352V860.433C1399.63 874.975 1349.93 889.515 1291.05 903.932C949.608 987.52 787.377 1048.01 765.214 1098.9C744.136 1147.29 849.453 1186.93 1047.61 1229.4ZM995.906 1229.4C812.056 1188.79 715.243 1150.48 735.411 1104.18C757.488 1053.49 919.476 993.135 1260.46 909.658C1334.44 891.545 1393.92 873.237 1441.36 854.973V854C1393.81 872.398 1334.03 890.845 1259.49 909.093C918.053 992.682 755.82 1053.17 733.655 1104.07C713.436 1150.49 809.559 1188.86 992.375 1229.4H995.906Z" fill="white"/>
</mask>
<g mask="url(#mask1_39_48)">
  <filter id="glow2" x="700" y="830" width="760" height="420" filterUnits="userSpaceOnUse">
    <feGaussianBlur stdDeviation="12" result="blur2"/>
    <feMerge>
      <feMergeNode in="blur2"/>
      <feMergeNode in="SourceGraphic"/>
    </feMerge>
  </filter>
  <path d="M1441.36 854H713.436V1229.4H1441.36V854Z" fill="url(#paint1_linear_39_48)" filter="url(#glow2)" opacity="0.7"/>
  <path d="M1441.36 854H713.436V1229.4H1441.36V854Z" fill="url(#paint1_linear_39_48)"/>
</g>
</g>
<defs>
<linearGradient id="paint0_linear_39_48" x1="374.99" y1="644.011" x2="375.002" y2="-0.014523" gradientUnits="userSpaceOnUse">
<stop stop-color="#4E3A6B"/>
<stop offset="0.47" stop-color="#2C2B3A"/>
<stop offset="1" stop-color="#18171F"/>
</linearGradient>
<linearGradient id="paint1_linear_39_48" x1="816.378" y1="1187.44" x2="1004.52" y2="457.361" gradientUnits="userSpaceOnUse">
<stop stop-color="#4E3A6B"/>
<stop offset="0.461538" stop-color="#23213A"/>
<stop offset="1" stop-color="#120D1F"/>
</linearGradient>
</defs>
</svg>
