<?xml version="1.0" encoding="utf-8"?>
<svg width="600px" height="600px" viewBox="47.3 77.5 600 600" fill="none" xmlns="http://www.w3.org/2000/svg" xmlns:bx="https://boxy-svg.com"><path d="M562.602 448.539C515.672 565.309 390.66 630.724 282.249 613.079C264.609 610.207 216.246 601.654 173.429 561.304C91.0009 483.626 73.3731 329.814 139.865 221.419C188.259 142.527 275.011 97.8052 357.442 100.042C375.198 100.524 443.245 103.494 503.047 155.602C511.831 163.255 531.204 181.443 548.664 210.295C589.663 278.047 593.187 372.439 562.602 448.539Z" fill="#6B627E" fill-opacity="0.2"/><path d="M87.0548 426.75C95.0676 391.131 121.27 363.17 154.626 354.619C177.559 348.74 199.561 351.894 218.158 361.421C224.326 364.58 231.656 361.004 233.365 353.93C249.805 285.884 307.662 235.614 376.519 235.614C458.167 235.614 524.356 306.295 524.356 393.483C524.356 395.798 524.312 398.959 524.274 401.993C524.563 408.513 527.229 411.282 531.209 411.977C563.198 415.532 588.338 443.693 589.733 478.428C591.335 518.31 560.937 551.352 523.555 551.352H177.776C118.583 551.353 72.2367 492.62 87.0548 426.75Z" fill="#271056"/><path opacity="0.21" d="M113.835 440.099C120.989 408.296 144.385 383.33 174.167 375.695C194.644 370.446 214.289 373.263 230.893 381.768C236.401 384.59 242.945 381.396 244.471 375.08C259.149 314.324 310.809 269.44 372.288 269.44C445.189 269.44 504.288 332.548 504.288 410.396C504.288 412.463 504.249 415.286 504.215 417.995C504.473 423.816 506.853 426.288 510.406 426.908C538.968 430.083 561.415 455.227 562.661 486.24C564.091 521.85 536.95 551.353 503.572 551.353H194.837C141.986 551.353 100.605 498.912 113.835 440.099Z" fill="#4D4284"/><path d="M153.983 594.02C153.983 596.939 156.278 599.327 159.083 599.327H434.884C437.689 599.327 439.984 596.939 439.984 594.02L442.279 428.949C442.279 426.031 438.977 420.333 432.926 420.761L163.383 413.497C159.863 413.403 156.46 414.813 153.968 417.401C151.476 419.988 150.112 423.526 150.195 427.188L153.983 594.02Z" fill="black"/><path d="M159.018 588.929C159.018 591.693 161.189 593.954 163.843 593.954H428.233C430.887 593.954 433.058 591.693 433.058 588.929L435.223 439.076C434.968 430.059 427.377 426.818 422.776 427.009L164.443 419.791C161.971 419.722 159.58 420.714 157.828 422.533C156.077 424.353 155.114 426.842 155.176 429.418L159.018 588.929Z" fill="#271056"/><path d="M132.636 613.03H455.74C456.305 613.03 456.767 612.548 456.767 611.96V599.596C456.767 599.007 456.305 598.526 455.74 598.526H132.636C132.071 598.526 131.609 599.007 131.609 599.596V611.96C131.609 612.548 132.071 613.03 132.636 613.03Z" fill="#080810"/><path d="M273.722 586.644H171.926C168.172 586.644 165.13 583.475 165.13 579.566V441.178C165.13 437.163 168.333 433.952 172.185 434.105L273.982 438.162C277.631 438.308 280.518 441.432 280.518 445.235V579.566C280.518 583.475 277.476 586.644 273.722 586.644Z" fill="#4D4284"/><path d="M430.283 213.979C430.183 213.979 430.08 213.953 429.987 213.898C429.691 213.727 429.585 213.34 429.749 213.032C430.143 212.295 430.524 211.552 430.895 210.804C431.049 210.492 431.417 210.37 431.719 210.53C432.019 210.691 432.137 211.076 431.982 211.389C431.606 212.148 431.218 212.902 430.818 213.651C430.706 213.86 430.498 213.979 430.283 213.979Z" fill="#4D4284"/><path d="M358.729 257.841C358.367 257.841 358.007 257.839 357.645 257.834C357.308 257.829 357.038 257.54 357.042 257.188C357.047 256.84 357.32 256.56 357.654 256.56H357.662C359.244 256.582 360.842 256.555 362.421 256.48C362.736 256.458 363.045 256.736 363.06 257.088C363.076 257.439 362.814 257.737 362.477 257.753C361.234 257.811 359.973 257.841 358.729 257.841ZM349.876 257.344C349.854 257.344 349.832 257.343 349.81 257.341C348.212 257.16 346.602 256.929 345.024 256.654C344.69 256.595 344.466 256.267 344.521 255.92C344.577 255.573 344.894 255.337 345.225 255.397C346.781 255.669 348.367 255.897 349.941 256.074C350.277 256.112 350.52 256.426 350.484 256.775C350.45 257.102 350.184 257.344 349.876 257.344ZM370.208 257.003C369.907 257.003 369.646 256.772 369.603 256.455C369.555 256.106 369.788 255.784 370.123 255.735C371.689 255.505 373.267 255.224 374.816 254.899C375.144 254.83 375.469 255.054 375.536 255.398C375.602 255.743 375.388 256.079 375.057 256.149C373.485 256.479 371.883 256.763 370.294 256.997C370.265 257.001 370.236 257.003 370.208 257.003ZM337.511 254.944C337.458 254.944 337.405 254.937 337.352 254.922C335.802 254.491 334.245 254.006 332.723 253.482C332.402 253.371 332.229 253.011 332.335 252.677C332.441 252.343 332.785 252.163 333.108 252.272C334.607 252.789 336.141 253.266 337.668 253.691C337.994 253.782 338.188 254.131 338.101 254.471C338.028 254.756 337.781 254.944 337.511 254.944ZM382.494 254.181C382.231 254.181 381.988 254.004 381.908 253.729C381.81 253.392 381.993 253.037 382.316 252.935C383.832 252.456 385.35 251.926 386.83 251.358C387.146 251.236 387.499 251.405 387.616 251.735C387.732 252.066 387.57 252.432 387.253 252.553C385.751 253.13 384.209 253.669 382.671 254.154C382.612 254.173 382.552 254.181 382.494 254.181ZM325.643 250.599C325.561 250.599 325.477 250.582 325.397 250.545C323.926 249.87 322.459 249.142 321.036 248.381C320.735 248.22 320.617 247.836 320.771 247.523C320.926 247.211 321.293 247.087 321.595 247.247C322.997 247.997 324.442 248.714 325.891 249.379C326.2 249.521 326.34 249.898 326.204 250.219C326.102 250.457 325.878 250.599 325.643 250.599ZM394.216 249.424C393.988 249.424 393.77 249.292 393.664 249.063C393.518 248.747 393.645 248.366 393.95 248.213C395.373 247.499 396.795 246.731 398.177 245.929C398.474 245.759 398.845 245.869 399.009 246.176C399.174 246.483 399.067 246.872 398.772 247.043C397.369 247.856 395.926 248.636 394.481 249.361C394.395 249.404 394.305 249.424 394.216 249.424ZM314.564 244.405C314.451 244.405 314.336 244.372 314.234 244.304C312.883 243.402 311.542 242.446 310.246 241.465C309.973 241.257 309.913 240.859 310.112 240.574C310.311 240.29 310.693 240.228 310.966 240.434C312.242 241.402 313.564 242.342 314.895 243.231C315.179 243.421 315.261 243.815 315.079 244.112C314.962 244.302 314.765 244.405 314.564 244.405ZM405.093 242.839C404.899 242.839 404.708 242.743 404.589 242.564C404.397 242.274 404.467 241.877 404.745 241.678C406.047 240.743 407.339 239.755 408.585 238.742C408.852 238.527 409.236 238.576 409.444 238.853C409.651 239.131 409.604 239.531 409.338 239.748C408.072 240.775 406.761 241.777 405.44 242.726C405.334 242.802 405.213 242.839 405.093 242.839ZM304.536 236.506C304.391 236.506 304.247 236.453 304.13 236.346C302.933 235.242 301.747 234.084 300.607 232.902C300.367 232.654 300.366 232.251 300.605 232.002C300.843 231.753 301.23 231.751 301.469 231.999C302.593 233.163 303.761 234.304 304.941 235.392C305.194 235.625 305.218 236.027 304.994 236.291C304.872 236.433 304.705 236.506 304.536 236.506ZM414.879 234.594C414.716 234.594 414.555 234.526 414.434 234.394C414.202 234.138 414.214 233.734 414.459 233.493C415.61 232.362 416.743 231.183 417.826 229.988C418.059 229.733 418.446 229.722 418.691 229.962C418.937 230.204 418.948 230.607 418.716 230.863C417.617 232.075 416.467 233.272 415.299 234.42C415.18 234.536 415.029 234.594 414.879 234.594ZM295.776 227.1C295.601 227.1 295.427 227.022 295.305 226.871C294.28 225.589 293.277 224.257 292.322 222.912C292.122 222.629 292.18 222.23 292.451 222.021C292.724 221.812 293.106 221.873 293.307 222.154C294.247 223.48 295.236 224.793 296.246 226.056C296.462 226.326 296.427 226.728 296.167 226.953C296.053 227.052 295.914 227.1 295.776 227.1ZM423.345 224.905C423.214 224.905 423.082 224.862 422.97 224.771C422.703 224.555 422.656 224.155 422.863 223.877C423.837 222.574 424.783 221.228 425.676 219.877C425.868 219.588 426.249 219.514 426.527 219.713C426.805 219.913 426.875 220.31 426.684 220.599C425.778 221.971 424.818 223.337 423.828 224.66C423.707 224.821 423.527 224.905 423.345 224.905ZM288.488 216.42C288.28 216.42 288.078 216.31 287.963 216.111C287.134 214.673 286.338 213.196 285.598 211.721C285.442 211.41 285.558 211.025 285.857 210.862C286.156 210.699 286.526 210.819 286.683 211.132C287.412 212.584 288.195 214.039 289.012 215.455C289.186 215.757 289.092 216.148 288.802 216.329C288.704 216.391 288.595 216.42 288.488 216.42ZM282.865 204.7C282.623 204.7 282.395 204.55 282.298 204.302C281.693 202.75 281.126 201.163 280.613 199.585C280.505 199.252 280.676 198.89 280.996 198.778C281.313 198.665 281.663 198.844 281.772 199.177C282.277 200.731 282.835 202.293 283.432 203.823C283.559 204.149 283.408 204.52 283.095 204.653C283.02 204.685 282.942 204.7 282.865 204.7Z" fill="#4D4284"/><path d="M279.038 192.182C278.76 192.182 278.509 191.984 278.443 191.691C278.255 190.857 278.079 190.021 277.915 189.184C277.848 188.84 278.062 188.503 278.393 188.433C278.723 188.364 279.047 188.584 279.113 188.93C279.275 189.755 279.449 190.578 279.634 191.4C279.711 191.742 279.507 192.085 279.178 192.165C279.131 192.176 279.084 192.182 279.038 192.182Z" fill="#4D4284"/><path d="M289.409 127.218C289.297 127.218 289.185 127.186 289.083 127.119C288.797 126.932 288.711 126.538 288.892 126.241C289.329 125.519 289.777 124.802 290.235 124.091C290.424 123.799 290.804 123.72 291.084 123.917C291.365 124.114 291.439 124.51 291.251 124.801C290.798 125.503 290.357 126.209 289.926 126.92C289.811 127.112 289.612 127.218 289.409 127.218Z" fill="#4D4284"/><path d="M437.242 148.558C436.977 148.558 436.733 148.379 436.655 148.101C436.188 146.44 435.664 144.773 435.099 143.146C434.984 142.816 435.148 142.45 435.466 142.33C435.782 142.21 436.134 142.382 436.249 142.713C436.823 144.364 437.354 146.056 437.829 147.742C437.924 148.08 437.738 148.434 437.414 148.533C437.357 148.55 437.299 148.558 437.242 148.558ZM432.502 135.7C432.274 135.7 432.055 135.567 431.95 135.339C431.229 133.776 430.453 132.22 429.643 130.713C429.478 130.406 429.583 130.018 429.878 129.846C430.173 129.675 430.546 129.784 430.711 130.091C431.532 131.62 432.32 133.2 433.053 134.786C433.199 135.104 433.071 135.484 432.767 135.637C432.681 135.68 432.591 135.7 432.502 135.7ZM425.822 123.811C425.629 123.811 425.439 123.717 425.32 123.539C424.369 122.124 423.361 120.719 422.325 119.363C422.115 119.088 422.159 118.687 422.423 118.468C422.688 118.248 423.072 118.294 423.282 118.569C424.333 119.946 425.357 121.372 426.323 122.809C426.516 123.097 426.449 123.494 426.172 123.696C426.066 123.774 425.943 123.811 425.822 123.811ZM295.651 118.251C295.513 118.251 295.375 118.203 295.261 118.104C295.001 117.88 294.965 117.478 295.181 117.207C296.254 115.861 297.385 114.527 298.543 113.242C298.774 112.985 299.161 112.973 299.408 113.213C299.654 113.455 299.667 113.858 299.435 114.114C298.294 115.38 297.179 116.695 296.122 118.021C296.001 118.173 295.827 118.251 295.651 118.251ZM417.392 113.197C417.233 113.197 417.073 113.132 416.953 113.003C415.801 111.766 414.593 110.546 413.362 109.377C413.112 109.14 413.094 108.737 413.322 108.477C413.549 108.216 413.937 108.198 414.186 108.435C415.436 109.622 416.662 110.86 417.831 112.116C418.067 112.369 418.061 112.772 417.818 113.017C417.699 113.137 417.546 113.197 417.392 113.197ZM304.886 108.392C304.716 108.392 304.546 108.318 304.426 108.174C304.203 107.909 304.229 107.507 304.484 107.275C305.757 106.118 307.078 104.987 308.411 103.915C308.681 103.701 309.063 103.753 309.269 104.03C309.475 104.309 309.426 104.709 309.159 104.924C307.845 105.98 306.543 107.093 305.289 108.234C305.173 108.34 305.029 108.392 304.886 108.392ZM407.453 104.119C407.326 104.119 407.198 104.078 407.088 103.994C405.755 102.962 404.374 101.961 402.983 101.018C402.7 100.826 402.62 100.431 402.804 100.136C402.988 99.8418 403.366 99.7577 403.651 99.95C405.062 100.907 406.465 101.923 407.818 102.971C408.089 103.181 408.146 103.58 407.945 103.862C407.824 104.03 407.64 104.119 407.453 104.119ZM315.515 100.188C315.311 100.188 315.111 100.082 314.996 99.8877C314.817 99.5891 314.905 99.1965 315.191 99.0105C316.622 98.0829 318.101 97.1883 319.587 96.3528C319.885 96.1842 320.256 96.3017 320.416 96.6104C320.576 96.9201 320.465 97.3065 320.168 97.4738C318.704 98.2969 317.247 99.1778 315.838 100.092C315.737 100.157 315.626 100.188 315.515 100.188ZM396.235 96.8338C396.141 96.8338 396.045 96.8115 395.955 96.7629C394.48 95.971 392.961 95.2163 391.44 94.5196C391.131 94.3784 390.99 94.0026 391.126 93.6804C391.261 93.3581 391.622 93.2107 391.932 93.3538C393.476 94.0605 395.019 94.8263 396.516 95.6307C396.816 95.7918 396.934 96.1763 396.779 96.4887C396.67 96.7082 396.456 96.8338 396.235 96.8338ZM327.275 93.8806C327.035 93.8806 326.808 93.7332 326.71 93.4881C326.58 93.1634 326.728 92.7908 327.04 92.6552C328.594 91.9827 330.192 91.3499 331.791 90.7763C332.112 90.6624 332.459 90.8378 332.569 91.1707C332.679 91.5035 332.509 91.8663 332.19 91.9808C330.615 92.5462 329.041 93.1689 327.51 93.8322C327.433 93.8651 327.353 93.8806 327.275 93.8806ZM384.031 91.5365C383.969 91.5365 383.905 91.5264 383.842 91.5054C382.264 90.9722 380.647 90.4832 379.038 90.0516C378.71 89.9638 378.513 89.6162 378.597 89.2758C378.682 88.9348 379.02 88.7302 379.342 88.8173C380.976 89.2559 382.617 89.7523 384.22 90.2936C384.541 90.4019 384.717 90.7614 384.613 91.0961C384.529 91.3654 384.289 91.5365 384.031 91.5365ZM339.859 89.644C339.582 89.644 339.33 89.4463 339.264 89.1532C339.187 88.811 339.39 88.4676 339.719 88.3868C341.364 87.983 343.039 87.6284 344.698 87.333C345.039 87.277 345.348 87.5065 345.404 87.8532C345.462 88.2004 345.238 88.5295 344.905 88.5885C343.271 88.8797 341.62 89.2292 340 89.6274C339.953 89.6385 339.906 89.644 339.859 89.644ZM371.166 88.3588C371.135 88.3588 371.104 88.3563 371.073 88.3512C369.43 88.0888 367.759 87.8767 366.104 87.7198C365.768 87.688 365.52 87.3777 365.55 87.0274C365.581 86.6772 365.872 86.4177 366.215 86.4507C367.894 86.61 369.591 86.8259 371.258 87.0921C371.592 87.1457 371.821 87.4704 371.77 87.8182C371.724 88.1336 371.463 88.3588 371.166 88.3588ZM352.935 87.5773C352.617 87.5773 352.348 87.3203 352.326 86.985C352.302 86.6336 352.556 86.3294 352.893 86.3051C354.572 86.1819 356.28 86.1123 357.969 86.0974H357.974C358.31 86.0974 358.583 86.3791 358.586 86.7288C358.589 87.081 358.317 87.3684 357.98 87.3714C356.316 87.3864 354.633 87.4549 352.979 87.5754C352.964 87.5767 352.949 87.5773 352.935 87.5773Z" fill="#4D4284"/><path d="M439.567 159.405C439.271 159.405 439.011 159.18 438.964 158.866C438.839 158.034 438.703 157.203 438.554 156.374C438.492 156.028 438.711 155.696 439.043 155.631C439.373 155.571 439.695 155.795 439.757 156.14C439.907 156.982 440.046 157.825 440.173 158.669C440.225 159.017 439.996 159.343 439.663 159.397C439.63 159.402 439.599 159.405 439.567 159.405Z" fill="#4D4284"/><path d="M421.551 170.064C421.583 169.629 421.347 169.22 420.963 169.046L409.998 164.085C409.151 158.338 407.417 152.689 404.777 147.375L410.828 136.646C411.04 136.269 410.999 135.794 410.727 135.463L401.406 124.114C401.133 123.782 400.689 123.667 400.299 123.827L389.184 128.391C384.552 124.851 379.463 122.193 374.142 120.431L371.135 108.38C371.029 107.958 370.678 107.652 370.26 107.618L355.964 106.458C355.545 106.424 355.153 106.67 354.986 107.07L350.223 118.49C344.704 119.372 339.281 121.178 334.178 123.928L323.877 117.626C323.515 117.404 323.059 117.446 322.741 117.73L311.843 127.439C311.525 127.723 311.415 128.185 311.568 128.591L315.951 140.167C312.552 144.992 309.999 150.292 308.308 155.833L296.737 158.966C296.331 159.075 296.037 159.441 296.005 159.876L294.891 174.766C294.858 175.201 295.094 175.61 295.479 175.784L306.444 180.745C307.291 186.492 309.024 192.14 311.665 197.455L305.613 208.184C305.401 208.56 305.441 209.035 305.714 209.367L315.036 220.716C315.308 221.048 315.753 221.163 316.142 221.003L327.257 216.438C331.889 219.979 336.979 222.637 342.299 224.399L345.307 236.449C345.412 236.872 345.763 237.178 346.181 237.212L360.478 238.372C360.895 238.406 361.288 238.16 361.455 237.76L366.219 226.34C371.737 225.458 377.16 223.652 382.263 220.902L392.565 227.204C392.926 227.425 393.382 227.383 393.701 227.1L404.598 217.391C404.916 217.108 405.027 216.645 404.873 216.239L400.491 204.663C403.89 199.838 406.442 194.538 408.134 188.997L419.705 185.864C420.11 185.755 420.404 185.389 420.437 184.954L421.551 170.064Z" fill="#4D4284"/><path d="M499.276 234.89C499.17 234.89 499.063 234.862 498.965 234.801C498.674 234.622 498.579 234.231 498.751 233.928C499.162 233.206 499.555 232.467 499.918 231.733C500.073 231.421 500.441 231.299 500.743 231.459C501.042 231.62 501.16 232.005 501.005 232.318C500.631 233.074 500.227 233.834 499.803 234.578C499.689 234.779 499.485 234.89 499.276 234.89Z" fill="#4D4284"/><path d="M459.799 256.211C459.783 256.211 459.767 256.211 459.75 256.21C458.092 256.073 456.424 255.834 454.797 255.5C454.465 255.431 454.25 255.096 454.315 254.751C454.381 254.406 454.703 254.181 455.033 254.249C456.616 254.575 458.234 254.807 459.846 254.939C460.183 254.967 460.434 255.274 460.408 255.624C460.383 255.958 460.115 256.211 459.799 256.211ZM467.799 256.077C467.491 256.077 467.226 255.836 467.191 255.51C467.154 255.161 467.396 254.845 467.731 254.806C469.341 254.618 470.952 254.331 472.519 253.951C472.846 253.868 473.177 254.084 473.254 254.427C473.33 254.77 473.126 255.112 472.797 255.192C471.183 255.583 469.524 255.879 467.867 256.073C467.844 256.075 467.821 256.077 467.799 256.077ZM447.247 253.126C447.17 253.126 447.092 253.111 447.016 253.079C445.479 252.428 443.96 251.674 442.503 250.838C442.207 250.668 442.099 250.281 442.262 249.973C442.425 249.665 442.796 249.554 443.093 249.722C444.509 250.534 445.984 251.266 447.477 251.898C447.79 252.031 447.941 252.403 447.814 252.729C447.717 252.976 447.488 253.126 447.247 253.126ZM480.245 252.554C480.011 252.554 479.787 252.414 479.686 252.177C479.548 251.856 479.686 251.479 479.995 251.336C481.469 250.649 482.92 249.864 484.306 249.003C484.595 248.821 484.971 248.92 485.145 249.223C485.318 249.525 485.224 249.916 484.933 250.096C483.506 250.984 482.012 251.792 480.494 252.499C480.413 252.537 480.328 252.554 480.245 252.554ZM436.196 246.213C436.058 246.213 435.919 246.164 435.804 246.065C434.532 244.959 433.306 243.76 432.16 242.501C431.928 242.245 431.938 241.842 432.183 241.6C432.428 241.358 432.816 241.368 433.047 241.623C434.162 242.848 435.353 244.012 436.588 245.087C436.847 245.312 436.882 245.714 436.665 245.984C436.545 246.135 436.371 246.213 436.196 246.213ZM491.069 245.252C490.901 245.252 490.733 245.18 490.613 245.04C490.388 244.777 490.41 244.374 490.662 244.14L491.021 243.802C492.097 242.78 493.132 241.69 494.096 240.56C494.32 240.296 494.707 240.272 494.96 240.508C495.212 240.742 495.235 241.144 495.01 241.407C494.018 242.569 492.953 243.692 491.846 244.744L491.477 245.091C491.359 245.199 491.214 245.252 491.069 245.252ZM427.668 236.139C427.467 236.139 427.269 236.036 427.153 235.845C426.256 234.388 425.433 232.86 424.707 231.301C424.56 230.984 424.686 230.603 424.99 230.45C425.295 230.296 425.66 230.428 425.807 230.744C426.513 232.258 427.312 233.743 428.182 235.158C428.365 235.454 428.282 235.848 427.997 236.038C427.895 236.107 427.781 236.139 427.668 236.139Z" fill="#4D4284"/><path d="M422.465 223.821C422.195 223.821 421.947 223.632 421.874 223.347C421.663 222.519 421.474 221.672 421.309 220.832C421.242 220.487 421.455 220.151 421.787 220.081C422.118 220.011 422.441 220.233 422.508 220.578C422.668 221.394 422.852 222.216 423.057 223.021C423.144 223.361 422.949 223.71 422.622 223.8C422.57 223.814 422.517 223.821 422.465 223.821Z" fill="#4D4284"/><path d="M427.503 189.249C427.391 189.249 427.279 189.217 427.178 189.15C426.892 188.963 426.806 188.57 426.987 188.272C427.426 187.545 427.892 186.824 428.37 186.126C428.566 185.841 428.949 185.774 429.223 185.978C429.498 186.183 429.562 186.581 429.365 186.867C428.9 187.544 428.448 188.246 428.021 188.952C427.905 189.144 427.706 189.249 427.503 189.249Z" fill="#4D4284"/><path d="M501.806 195.444C501.568 195.444 501.342 195.299 501.243 195.056C500.623 193.534 499.91 192.034 499.122 190.596C498.955 190.291 499.058 189.901 499.351 189.727C499.644 189.553 500.018 189.66 500.186 189.965C500.996 191.446 501.73 192.991 502.369 194.558C502.502 194.882 502.356 195.256 502.045 195.394C501.967 195.428 501.886 195.444 501.806 195.444ZM495.132 184.205C494.959 184.205 494.787 184.129 494.666 183.981C494.354 183.599 494.035 183.222 493.707 182.848C492.961 181.996 492.173 181.166 491.366 180.379C491.119 180.138 491.106 179.735 491.337 179.478C491.568 179.221 491.955 179.208 492.202 179.448C493.032 180.258 493.843 181.113 494.61 181.989C494.947 182.373 495.276 182.762 495.598 183.155C495.816 183.423 495.785 183.825 495.529 184.053C495.413 184.155 495.272 184.205 495.132 184.205ZM434.026 180.938C433.865 180.938 433.704 180.872 433.584 180.741C433.351 180.485 433.36 180.082 433.604 179.84C433.852 179.594 434.102 179.35 434.356 179.109C435.311 178.2 436.317 177.327 437.346 176.514C437.615 176.301 437.998 176.355 438.202 176.636C438.407 176.916 438.355 177.316 438.085 177.528C437.087 178.319 436.109 179.167 435.181 180.049C434.934 180.284 434.69 180.522 434.449 180.762C434.33 180.879 434.178 180.938 434.026 180.938ZM485.556 175.535C485.444 175.535 485.331 175.504 485.229 175.437C483.886 174.553 482.481 173.742 481.051 173.027C480.746 172.875 480.618 172.494 480.764 172.177C480.91 171.86 481.274 171.724 481.58 171.879C483.053 172.615 484.501 173.45 485.883 174.359C486.169 174.548 486.254 174.941 486.073 175.239C485.957 175.43 485.759 175.535 485.556 175.535ZM444.405 173.335C444.18 173.335 443.964 173.205 443.857 172.982C443.706 172.666 443.83 172.284 444.132 172.127C445.594 171.371 447.116 170.695 448.659 170.116C448.978 169.998 449.327 170.169 449.441 170.5C449.556 170.831 449.391 171.196 449.073 171.315C447.575 171.877 446.096 172.534 444.677 173.268C444.589 173.314 444.497 173.335 444.405 173.335ZM473.932 170.251C473.88 170.251 473.827 170.244 473.774 170.23C472.24 169.806 470.665 169.469 469.093 169.231C468.758 169.181 468.527 168.857 468.576 168.51C468.624 168.161 468.932 167.911 469.269 167.971C470.887 168.216 472.509 168.561 474.089 168.998C474.415 169.088 474.61 169.437 474.523 169.777C474.45 170.063 474.203 170.251 473.932 170.251ZM456.492 169.319C456.196 169.319 455.935 169.095 455.888 168.782C455.835 168.434 456.063 168.108 456.397 168.053C458.008 167.787 459.655 167.616 461.292 167.544C461.63 167.537 461.915 167.802 461.929 168.154C461.943 168.505 461.681 168.802 461.344 168.817C459.753 168.887 458.153 169.054 456.588 169.311C456.556 169.317 456.523 169.319 456.492 169.319Z" fill="#4D4284"/><path d="M504.638 205.782C504.341 205.782 504.081 205.557 504.034 205.243C503.911 204.42 503.762 203.59 503.594 202.776C503.523 202.432 503.733 202.093 504.063 202.019C504.399 201.945 504.719 202.164 504.79 202.507C504.963 203.345 505.115 204.2 505.243 205.047C505.295 205.394 505.066 205.72 504.732 205.775C504.7 205.78 504.669 205.782 504.638 205.782Z" fill="#4D4284"/><path d="M495.383 210.948C495.4 210.724 495.279 210.514 495.081 210.425L489.449 207.877C489.013 204.925 488.123 202.023 486.767 199.293L489.875 193.782C489.984 193.589 489.963 193.344 489.823 193.174L485.035 187.344C484.895 187.174 484.667 187.115 484.467 187.197L478.757 189.542C476.378 187.723 473.763 186.358 471.03 185.453L469.485 179.262C469.431 179.045 469.251 178.888 469.036 178.871L461.692 178.275C461.477 178.258 461.276 178.384 461.19 178.589L458.743 184.456C455.909 184.909 453.123 185.836 450.502 187.249L445.21 184.011C445.024 183.898 444.79 183.92 444.626 184.065L439.029 189.052C438.865 189.198 438.808 189.436 438.887 189.645L441.139 195.591C439.393 198.069 438.081 200.792 437.213 203.638L431.269 205.247C431.061 205.304 430.91 205.491 430.893 205.715L430.321 213.364C430.304 213.587 430.425 213.797 430.623 213.886L436.255 216.435C436.69 219.387 437.581 222.288 438.937 225.018L435.829 230.53C435.72 230.723 435.74 230.967 435.88 231.137L440.669 236.967C440.809 237.138 441.037 237.197 441.237 237.115L446.947 234.77C449.326 236.589 451.94 237.954 454.674 238.859L456.219 245.049C456.273 245.266 456.453 245.423 456.668 245.441L464.012 246.037C464.226 246.054 464.428 245.928 464.514 245.722L466.96 239.856C469.795 239.403 472.581 238.476 475.202 237.063L480.494 240.3C480.68 240.414 480.914 240.392 481.077 240.246L486.675 235.259C486.839 235.114 486.895 234.876 486.816 234.667L484.565 228.721C486.311 226.243 487.622 223.52 488.491 220.674L494.435 219.065C494.643 219.008 494.794 218.821 494.811 218.597L495.383 210.948Z" fill="#4D4284"/><path d="M343.615 299.972C345.123 298.501 347.162 297.77 349.221 297.963C371.237 300.025 412.313 288.98 439.158 260.373C441.022 258.386 444.42 259.509 446.557 261.172C476.413 284.412 525.903 289.224 543.083 290.208C546.637 290.412 549.52 293.283 549.887 296.97C565.511 454.13 467.262 511.08 446.884 521.132C444.657 522.231 442.034 522.072 439.942 520.715C338.383 454.831 342.727 369.151 341.323 305.666C341.275 303.515 342.107 301.443 343.615 299.972Z" fill="#4D4284"/><path d="M148.929 342.871C148.929 342.871 155.217 343.218 155.988 356.69C155.988 356.69 141.408 370.303 121.713 373.543C120.234 373.786 123.78 363.031 124.313 361.575C126.849 354.642 134.836 350.178 148.929 342.871Z" fill="black"/><path d="M219.742 327.03H206.473C206.473 327.03 165.748 280.188 139.038 275.462C139.038 275.462 120.445 300.18 140.028 346.365C141.603 350.081 146.009 351.731 149.296 349.545C150.279 348.891 150.985 348.015 151.413 346.916L149.839 307.481C149.839 307.481 184.577 339.124 190.615 345.231C196.653 351.337 227.346 347.615 219.742 327.03Z" fill="#271056"/><path d="M91.4624 425.379C97.0226 420.305 105.882 414.611 118.671 412.978L122.997 415.733C122.997 415.733 120.239 419.97 115.2 424.446C110.569 427.247 103.419 431.041 97.4903 431.864C91.7268 432.663 90.8768 429.036 91.4624 425.379Z" fill="black"/><path d="M124.313 361.575C127.738 362.729 129.245 367.784 137.937 364.441C146.346 361.207 152.598 357.037 155.814 354.632C155.886 355.284 155.946 355.965 155.988 356.691C155.988 356.691 140.615 371.92 120.92 375.16C119.441 375.403 118.269 373.866 118.803 372.409C119.759 369.795 121.483 365.83 124.313 361.575Z" fill="#4D4284"/><path d="M87.2735 429.712C88.3696 428.414 89.7686 426.924 91.4623 425.379C90.8765 429.036 91.7266 432.663 97.4903 431.864C103.418 431.041 110.569 427.247 115.2 424.446C109.396 429.601 100.565 435.073 89.419 434.752C86.9432 434.68 85.6375 431.649 87.2735 429.712Z" fill="#4D4284"/><path d="M219.256 337.029L157.12 337.73C157.12 337.73 121.636 368.305 115.2 414.929C115.2 414.929 114.132 418.358 120.546 418.945C120.546 418.945 141.999 404.351 155.988 378.551C173.14 346.916 207.12 361.156 207.12 361.156C223.445 364.909 236.439 363.513 245.948 348.273L219.256 337.029Z" fill="#271056"/><path d="M217.789 284.899C217.789 284.899 211.1 319.812 178.326 333.624L166.667 332.193L163.916 336.762L191.263 337.669C191.263 337.669 214.638 328.027 227.023 301.752C227.432 300.883 234.252 286.218 217.789 284.899Z" fill="url(#paint0_linear_56_234)"/><path d="M214.204 336.458C214.204 336.458 221.811 314.924 223.446 293.999C223.446 293.999 217.881 289.018 214.403 286.87C213.276 286.174 212.851 284.702 213.42 283.473C215.978 277.956 231.442 256.292 232.601 255.991C238.897 254.355 264.72 241.567 282.908 267.476C290.713 278.596 281.359 312.825 245.948 348.273C234.553 350.205 223.9 346.785 214.204 336.458Z" fill="#C4A7FF"/><path d="M243.514 298.718C243.514 298.718 222.381 324.779 195.362 328.589C195.362 328.589 188.379 321.959 183.187 324.326C177.994 326.693 170.874 337.142 170.874 337.142H205.567C205.567 337.142 238.37 335.938 254.762 315.221C253.443 307.972 249.493 303.641 243.514 298.718Z" fill="url(#paint1_linear_56_234)"/><path d="M255.843 237.712L260.467 253.774C260.679 254.51 260.417 255.307 259.809 255.741C257.582 257.329 251.764 260.487 243.782 257.418C242.869 257.067 242.243 256.179 242.164 255.169L241.068 241.176L255.843 237.712Z" fill="url(#paint2_linear_56_234)"/><path d="M228.767 224.704C228.767 224.704 231.04 241.354 237.181 246.475C243.323 251.595 255.288 247.739 259.329 235.187L251.277 213.725L228.767 224.704Z" fill="url(#paint3_linear_56_234)"/><path d="M252.184 227.614C251.717 227.771 251.228 227.459 251.155 226.953C250.933 225.416 250.38 222.375 249.259 220.303C249.259 220.303 249.845 218.118 243.958 221.418C238.072 224.718 229.23 229.566 224.024 226.679C218.949 223.865 213.808 209.701 227.221 212.325C227.731 212.425 228.201 212.002 228.162 211.462C227.998 209.134 228.219 203.779 233.427 202.06C238.3 200.451 240.967 202.742 242.067 204.125C242.39 204.532 242.99 204.524 243.299 204.104C244.759 202.12 248.723 197.895 254.559 200.574C259.366 202.78 260.113 205.863 260.034 207.785C260.008 208.408 260.615 208.83 261.158 208.569C262.63 207.863 264.998 207.496 267.267 210.456C270.403 214.548 265.921 218.096 264.577 219.027C264.357 219.179 264.22 219.432 264.218 219.707C264.205 221.835 263.887 231.118 259.42 236.355C259.033 236.808 258.318 236.675 258.093 236.116L254.654 227.581C254.494 227.184 254.069 226.981 253.677 227.113L252.184 227.614Z" fill="#080810"/><path d="M252.111 229.346C252.111 229.346 254.212 220.437 257.402 223.329C260.593 226.222 256.571 232.589 252.915 233.803L252.111 229.346Z" fill="url(#paint4_linear_56_234)"/><path d="M172.621 339.164L157.044 285.062C156.409 282.854 154.526 281.288 152.319 281.131L131.288 279.633C129.15 279.48 127.56 281.655 128.27 283.761L145.683 335.428C146.244 337.093 147.679 338.269 149.364 338.446L170.074 340.842L172.621 339.164Z" fill="#080810"/><path d="M143.893 303.398C145.056 305.843 147.064 307.276 148.379 306.597C149.693 305.919 149.816 303.387 148.653 300.942C147.49 298.497 145.482 297.065 144.167 297.743C142.853 298.422 142.73 300.953 143.893 303.398Z" fill="#4D4284"/><path d="M170.074 340.841C170.108 340.841 170.142 340.841 170.176 340.839L214.304 338.516C215.395 338.459 216.235 337.491 216.18 336.355C216.125 335.218 215.191 334.325 214.104 334.402L169.976 336.725C168.885 336.782 168.046 337.75 168.101 338.886C168.154 339.986 169.028 340.841 170.074 340.841Z" fill="black"/><path d="M223.445 294.318C223.277 294.318 223.14 294.176 223.14 294.001C223.109 284.299 226.693 271.459 226.73 271.33C226.777 271.162 226.946 271.065 227.109 271.114C227.271 271.163 227.364 271.341 227.317 271.509C227.28 271.637 223.721 284.39 223.751 293.998C223.752 294.174 223.615 294.317 223.446 294.318H223.445Z" fill="url(#paint5_linear_56_234)"/><path d="M243.514 299.037C243.448 299.037 243.381 299.014 243.325 298.968C243.193 298.859 243.17 298.659 243.274 298.521C243.371 298.393 252.963 285.694 256.245 277.03C256.307 276.866 256.484 276.783 256.642 276.851C256.8 276.915 256.877 277.1 256.815 277.264C253.499 286.015 243.852 298.788 243.755 298.915C243.694 298.995 243.605 299.037 243.514 299.037Z" fill="url(#paint6_linear_56_234)"/><path d="M257.111 318.563L255.366 315.993C255.269 315.849 255.301 315.65 255.439 315.549C255.577 315.446 255.768 315.481 255.866 315.625L257.325 317.774C270.935 311.559 279.361 294.602 279.445 294.43C279.521 294.274 279.705 294.21 279.856 294.291C280.007 294.371 280.066 294.563 279.99 294.72C279.904 294.894 271.288 312.241 257.339 318.462L257.111 318.563Z" fill="url(#paint7_linear_56_234)"/><defs><linearGradient id="paint0_linear_56_234" x1="181.997" y1="296.108" x2="212.671" y2="331.133" gradientUnits="userSpaceOnUse"><stop stop-color="#FEBBBA"/><stop offset="1" stop-color="#FF928E"/></linearGradient><linearGradient id="paint1_linear_56_234" x1="216.129" y1="329.094" x2="154.482" y2="248.118" gradientUnits="userSpaceOnUse"><stop stop-color="#FEBBBA"/><stop offset="1" stop-color="#FF928E"/></linearGradient><linearGradient id="paint2_linear_56_234" x1="251.92" y1="260.01" x2="249.585" y2="239.83" gradientUnits="userSpaceOnUse"><stop stop-color="#FEBBBA"/><stop offset="1" stop-color="#FF928E"/></linearGradient><linearGradient id="paint3_linear_56_234" x1="240.425" y1="242.389" x2="250.656" y2="209.99" gradientUnits="userSpaceOnUse"><stop stop-color="#FEBBBA"/><stop offset="1" stop-color="#FF928E"/></linearGradient><linearGradient id="paint4_linear_56_234" x1="250.265" y1="245.496" x2="260.495" y2="213.096" gradientUnits="userSpaceOnUse"><stop stop-color="#FEBBBA"/><stop offset="1" stop-color="#FF928E"/></linearGradient><linearGradient id="paint5_linear_56_234" x1="233.118" y1="155.512" x2="218.196" y2="376.159" gradientUnits="userSpaceOnUse"><stop stop-color="#E1473D"/><stop offset="1" stop-color="#E9605A"/></linearGradient><linearGradient id="paint6_linear_56_234" x1="258.173" y1="157.206" x2="243.251" y2="377.853" gradientUnits="userSpaceOnUse"><stop stop-color="#E1473D"/><stop offset="1" stop-color="#E9605A"/></linearGradient><linearGradient id="paint7_linear_56_234" x1="276.815" y1="158.467" x2="261.892" y2="379.114" gradientUnits="userSpaceOnUse"><stop stop-color="#E1473D"/><stop offset="1" stop-color="#E9605A"/></linearGradient><bx:export><bx:file format="svg" width="1415" height="827" excluded="true"/><bx:file format="svg" path="Untitled 2.svg"/></bx:export></defs></svg>